<svg id="svg" version="1.1" xmlns="http://www.w3.org/2000/svg" xmlns:xlink="http://www.w3.org/1999/xlink" width="400" height="300" viewBox="0, 0, 400,300"><g id="svgg"><path id="path0" d="M0.000 150.000 L 0.000 300.000 200.000 300.000 L 400.000 300.000 400.000 150.000 L 400.000 0.000 200.000 0.000 L 0.000 0.000 0.000 150.000 M176.472 52.706 C 178.186 53.498,178.123 53.354,177.772 55.714 L 177.545 57.245 178.460 58.028 C 178.964 58.459,179.937 59.506,180.622 60.355 C 181.306 61.205,181.919 61.888,181.983 61.874 C 182.048 61.859,182.831 61.787,183.725 61.712 L 185.351 61.577 185.900 63.081 C 186.549 64.861,186.532 64.928,185.162 66.012 L 184.100 66.851 184.089 70.330 L 184.079 73.810 185.439 74.844 C 186.188 75.413,186.800 75.891,186.800 75.906 C 186.800 76.029,185.436 79.030,185.334 79.133 C 185.261 79.205,184.430 79.150,183.486 79.009 C 181.774 78.755,181.769 78.755,181.460 79.227 C 181.290 79.487,180.214 80.623,179.068 81.752 L 176.986 83.804 177.214 85.521 C 177.475 87.480,177.539 87.368,175.748 88.070 C 173.997 88.756,174.169 88.811,173.061 87.218 L 172.100 85.835 170.300 85.723 C 169.310 85.661,167.868 85.577,167.095 85.535 L 165.689 85.460 164.695 86.824 C 163.547 88.397,163.596 88.384,161.914 87.621 C 160.312 86.895,160.200 86.681,160.454 84.855 L 160.655 83.409 158.755 81.555 C 157.710 80.535,156.662 79.440,156.426 79.122 L 155.998 78.543 154.349 78.743 C 152.359 78.983,152.487 79.047,151.764 77.452 C 151.007 75.783,151.054 75.613,152.579 74.459 L 153.857 73.492 153.892 70.696 C 153.912 69.158,153.994 67.630,154.076 67.300 C 154.216 66.734,154.144 66.637,152.804 65.600 C 151.197 64.356,151.214 64.443,152.184 62.303 L 152.747 61.062 154.316 61.309 C 156.264 61.614,156.129 61.673,158.034 59.689 C 158.904 58.782,159.932 57.829,160.317 57.570 L 161.018 57.100 160.959 55.309 L 160.900 53.517 162.048 52.963 C 164.030 52.006,163.993 51.999,165.098 53.538 L 166.077 54.900 169.288 54.833 C 172.895 54.758,172.714 54.826,174.033 53.050 C 174.462 52.473,174.842 52.000,174.878 52.000 C 174.914 52.000,175.631 52.318,176.472 52.706 M166.800 62.072 C 160.382 63.819,158.313 72.035,163.111 76.719 C 167.208 80.720,173.796 79.606,176.327 74.484 C 179.619 67.825,173.751 60.180,166.800 62.072 M134.700 79.200 C 135.118 80.740,135.476 82.000,135.495 82.000 C 137.187 82.000,143.212 83.692,145.249 84.740 L 146.997 85.639 149.758 83.933 C 151.277 82.995,152.605 82.203,152.709 82.174 C 152.814 82.146,153.966 83.210,155.269 84.541 L 157.639 86.960 155.811 90.059 L 153.984 93.159 154.982 95.030 C 156.246 97.396,156.893 99.081,157.697 102.100 L 158.336 104.500 159.118 104.762 C 159.548 104.906,160.980 105.311,162.300 105.662 L 164.700 106.300 164.700 109.800 L 164.700 113.300 162.400 113.944 C 161.135 114.298,159.710 114.703,159.233 114.844 L 158.366 115.100 157.798 117.300 C 157.035 120.256,156.358 122.083,155.072 124.652 L 153.994 126.805 154.383 127.566 C 154.597 127.985,155.364 129.341,156.088 130.580 L 157.405 132.831 155.189 135.165 C 153.970 136.449,152.859 137.563,152.720 137.641 C 152.572 137.723,151.254 137.073,149.547 136.077 L 146.626 134.371 145.488 135.099 C 143.706 136.239,140.279 137.899,138.250 138.606 C 135.907 139.422,135.750 139.851,137.950 139.427 C 142.656 138.521,152.447 139.184,155.338 140.605 C 158.098 141.961,158.322 145.152,155.760 146.602 C 154.256 147.453,149.031 147.275,146.527 146.287 C 146.178 146.149,146.163 146.223,146.291 147.420 C 146.476 149.143,146.566 149.400,146.983 149.400 C 147.664 149.400,147.980 169.991,147.331 172.095 C 146.079 176.153,141.299 176.282,140.068 172.291 C 139.753 171.271,139.703 170.433,139.719 166.450 L 139.737 161.800 138.069 161.800 L 136.400 161.800 136.400 167.403 L 136.400 173.006 130.450 172.953 L 124.500 172.900 124.447 167.350 L 124.394 161.800 118.997 161.800 L 113.600 161.800 113.600 155.600 L 113.600 149.400 119.000 149.400 L 124.400 149.400 124.398 145.050 C 124.395 139.200,124.426 139.344,123.061 138.914 C 120.935 138.244,118.530 137.126,116.228 135.738 C 113.406 134.037,114.054 133.998,110.661 136.081 L 107.821 137.824 105.661 135.591 C 104.472 134.362,103.429 133.235,103.343 133.084 C 103.165 132.774,103.501 132.058,105.257 129.007 L 106.462 126.913 105.999 126.107 C 103.971 122.570,103.045 120.456,102.186 117.400 C 101.471 114.856,101.749 115.070,97.930 114.129 L 94.800 113.358 94.803 110.029 C 94.807 105.966,94.485 106.395,98.200 105.500 C 101.887 104.611,101.476 104.918,102.082 102.596 C 102.864 99.597,104.102 96.698,105.647 94.250 L 106.436 92.999 104.795 90.191 C 102.750 86.694,102.698 87.221,105.361 84.520 L 107.622 82.227 110.635 84.210 L 113.648 86.193 114.174 85.822 C 115.911 84.595,119.168 83.316,122.624 82.503 C 125.535 81.818,125.209 82.128,126.092 79.200 C 126.507 77.825,126.886 76.633,126.935 76.550 C 126.984 76.468,128.580 76.400,130.482 76.400 L 133.940 76.400 134.700 79.200 M265.900 88.818 C 266.838 89.071,269.086 91.136,269.522 92.144 C 270.294 93.929,269.957 94.575,266.414 98.097 C 264.866 99.636,263.600 100.960,263.600 101.040 C 263.600 101.120,267.988 101.211,273.350 101.243 L 283.100 101.300 284.100 101.791 C 285.378 102.419,286.781 103.822,287.409 105.100 L 287.900 106.100 288.000 127.275 L 288.100 148.451 288.758 147.436 C 291.276 143.548,295.845 143.053,298.112 146.422 C 299.238 148.095,299.500 149.319,299.500 152.900 C 299.500 158.446,298.381 160.795,295.737 160.799 C 293.642 160.802,293.211 159.940,293.204 155.744 C 293.199 151.807,292.856 151.000,291.194 151.000 C 288.475 151.000,287.649 154.943,288.827 162.300 C 290.339 171.736,289.485 175.481,285.952 174.916 C 284.074 174.615,283.255 173.655,282.552 170.934 C 282.150 169.374,282.056 169.192,281.700 169.287 C 281.480 169.346,279.850 169.396,278.078 169.397 L 274.856 169.400 274.742 170.650 L 274.629 171.900 276.110 173.422 C 278.584 175.965,279.418 178.461,278.712 181.213 C 278.186 183.268,277.580 184.058,272.926 188.753 L 268.513 193.207 268.899 193.925 C 270.484 196.867,274.199 197.257,276.649 194.737 C 278.192 193.151,279.194 193.630,282.504 197.531 C 283.835 199.100,283.832 199.013,282.597 200.203 C 278.588 204.067,281.716 209.707,287.200 208.501 C 299.613 205.772,305.543 213.370,305.151 231.503 C 305.024 237.390,304.499 238.734,302.242 238.951 C 300.455 239.122,299.672 238.398,299.207 236.144 L 298.969 234.987 297.928 236.044 C 295.812 238.193,293.309 239.075,289.300 239.088 C 283.671 239.105,280.323 236.870,279.187 232.337 C 279.017 231.656,278.884 231.436,278.733 231.587 C 278.273 232.047,277.467 231.822,276.976 231.097 C 275.831 229.407,273.562 228.645,271.642 229.307 C 270.080 229.845,268.312 232.760,268.474 234.534 C 268.580 235.703,268.249 236.200,267.363 236.200 C 266.935 236.200,266.666 236.517,265.619 238.250 C 260.925 246.019,257.144 249.236,254.296 247.885 C 251.467 246.542,253.242 241.397,258.586 235.447 C 260.312 233.525,260.421 233.352,260.291 232.747 C 259.451 228.847,254.471 227.749,251.893 230.895 C 251.424 231.468,250.991 231.800,250.713 231.800 C 249.797 231.800,245.200 227.287,245.200 226.388 C 245.200 226.209,245.641 225.691,246.180 225.237 C 248.799 223.028,248.585 218.988,245.766 217.420 C 244.575 216.758,244.571 216.765,244.827 219.011 C 245.126 221.623,244.926 230.351,244.513 232.764 C 243.771 237.097,242.584 238.900,240.471 238.900 C 238.040 238.900,237.260 236.691,237.063 229.245 L 236.945 224.790 234.800 226.882 C 232.399 229.223,231.223 230.055,229.793 230.421 L 228.819 230.671 227.469 233.054 C 225.019 237.382,223.330 238.693,220.200 238.697 C 216.786 238.702,214.819 236.869,211.754 230.827 L 210.600 228.551 210.600 232.088 C 210.600 236.807,210.989 236.400,206.480 236.400 C 202.850 236.400,202.760 236.410,202.128 236.892 C 199.288 239.058,195.634 239.128,194.300 237.041 L 193.900 236.415 189.899 236.408 L 185.898 236.400 185.450 237.377 C 184.945 238.477,184.127 239.000,182.910 239.000 C 181.597 239.000,180.963 238.481,180.409 236.950 C 180.137 236.199,179.025 236.181,178.068 236.911 C 174.255 239.819,167.041 239.954,163.357 237.186 L 162.311 236.400 158.599 236.400 L 154.886 236.400 154.533 236.997 C 153.077 239.463,149.292 239.505,148.273 237.066 L 147.995 236.400 144.437 236.400 C 141.937 236.400,140.809 236.329,140.640 236.160 C 140.464 235.984,140.400 234.314,140.400 229.892 L 140.400 223.863 139.589 223.620 C 137.359 222.952,135.897 220.087,133.509 211.700 L 132.997 209.900 133.106 213.000 C 133.166 214.705,133.299 217.945,133.403 220.200 C 134.072 234.771,133.404 237.865,129.659 237.555 C 126.473 237.291,125.807 234.526,126.383 223.953 C 127.121 210.407,128.187 205.035,130.356 203.926 C 133.648 202.244,136.643 205.267,139.536 213.192 L 140.300 215.284 140.414 206.092 C 140.527 196.952,140.530 196.890,141.047 195.097 C 142.054 191.605,143.780 188.472,145.926 186.241 L 147.100 185.021 159.359 179.967 L 171.618 174.913 170.224 174.678 C 164.476 173.710,162.029 168.842,161.488 157.300 C 161.105 149.119,162.714 145.052,166.084 145.684 C 168.426 146.123,168.813 147.625,169.206 157.814 C 169.519 165.941,170.463 168.000,173.874 168.000 C 178.444 168.000,179.575 164.669,178.580 154.142 C 178.332 151.520,178.203 149.044,178.265 148.100 C 178.425 145.682,177.136 142.473,175.853 142.094 C 171.427 140.787,168.208 135.000,168.185 128.306 C 168.171 124.395,169.982 121.140,173.040 119.580 L 173.800 119.192 173.800 115.922 C 173.800 97.438,191.051 84.519,208.500 89.937 C 210.725 90.627,210.600 90.259,210.600 96.138 L 210.600 101.200 230.942 101.200 L 251.285 101.200 257.309 95.188 C 261.868 90.638,263.523 89.108,264.116 88.897 C 265.080 88.553,264.942 88.560,265.900 88.818 M196.800 90.894 C 186.347 92.632,178.228 100.349,176.104 110.563 C 175.890 111.593,175.800 113.227,175.800 116.089 C 175.800 120.640,175.898 120.332,174.199 121.119 C 169.839 123.139,168.737 129.690,171.736 135.760 C 172.986 138.289,175.381 140.400,177.001 140.400 C 177.869 140.400,178.216 140.841,178.986 142.916 C 179.506 144.315,179.808 144.879,180.012 144.830 C 183.419 144.003,185.053 146.330,186.098 153.500 L 186.418 155.700 187.659 156.958 C 191.378 160.727,197.276 163.136,201.500 162.610 L 202.500 162.486 200.994 162.339 C 194.414 161.695,191.795 159.465,191.802 154.514 C 191.810 149.563,194.793 146.072,200.125 144.772 C 201.975 144.321,206.847 144.127,208.050 144.457 L 208.600 144.608 208.600 118.299 L 208.600 91.990 208.050 91.775 C 205.647 90.834,199.876 90.382,196.800 90.894 M263.126 91.993 L 261.700 93.386 263.400 95.099 L 265.100 96.813 266.550 95.332 C 268.348 93.495,268.363 93.299,266.832 91.768 C 265.246 90.182,264.963 90.200,263.126 91.993 M125.654 94.401 C 113.476 97.592,109.581 113.594,118.858 122.321 C 129.070 131.927,145.474 124.586,145.496 110.400 C 145.512 99.539,135.832 91.734,125.654 94.401 M259.433 95.667 L 258.603 96.512 260.302 98.202 L 262.001 99.893 262.841 99.054 L 263.680 98.214 262.290 96.757 C 260.254 94.623,260.402 94.679,259.433 95.667 M244.514 110.725 L 231.928 123.425 233.565 125.062 L 235.201 126.698 247.899 114.001 L 260.596 101.305 258.953 99.652 C 258.049 98.744,257.262 98.006,257.204 98.012 C 257.147 98.019,251.436 103.740,244.514 110.725 M210.600 104.100 L 210.600 105.200 228.857 105.200 L 247.114 105.200 248.200 104.100 L 249.286 103.000 229.943 103.000 L 210.600 103.000 210.600 104.100 M260.607 104.093 L 259.514 105.200 267.345 105.200 L 275.177 105.200 275.489 105.645 C 276.040 106.432,275.954 164.151,275.400 164.855 C 275.119 165.212,275.000 165.666,275.000 166.382 L 275.000 167.400 278.428 167.400 L 281.856 167.400 281.726 166.350 C 279.616 149.305,280.959 141.599,285.550 144.398 L 286.200 144.794 286.199 126.147 C 286.198 113.150,286.131 107.259,285.977 106.704 C 285.628 105.447,284.746 104.344,283.570 103.692 L 282.500 103.100 272.100 103.043 L 261.700 102.987 260.607 104.093 M228.517 128.505 C 227.344 130.455,226.410 132.071,226.442 132.095 C 226.474 132.120,228.093 131.179,230.041 130.006 L 233.582 127.872 232.116 126.416 L 230.649 124.959 228.517 128.505 M281.689 131.645 C 282.161 132.318,282.144 138.309,281.669 138.834 C 280.476 140.153,280.000 139.117,280.000 135.200 C 280.000 132.402,280.053 131.775,280.314 131.514 C 280.758 131.071,281.324 131.124,281.689 131.645 M141.491 146.402 C 141.103 146.549,138.786 147.025,137.150 147.295 C 136.401 147.418,136.400 147.419,136.400 148.409 L 136.400 149.400 138.896 149.400 C 141.720 149.400,141.354 149.650,141.795 147.421 C 142.039 146.189,142.040 146.194,141.491 146.402 M200.752 151.085 C 197.436 152.268,197.437 155.883,200.753 156.868 C 201.321 157.036,202.801 157.321,204.043 157.500 C 206.056 157.790,207.136 158.002,208.250 158.325 C 208.574 158.419,208.600 158.170,208.600 155.027 C 208.600 151.961,208.566 151.617,208.250 151.524 C 205.842 150.817,202.115 150.598,200.752 151.085 M247.344 151.218 C 246.263 151.473,245.482 151.916,244.465 152.853 L 243.577 153.672 247.026 157.127 L 250.476 160.581 251.352 159.773 C 252.412 158.797,254.319 157.873,255.974 157.535 L 257.195 157.286 255.493 155.593 L 253.790 153.900 252.180 153.900 C 250.298 153.900,249.565 153.370,249.303 151.820 C 249.150 150.914,248.928 150.845,247.344 151.218 M186.672 160.029 C 186.742 160.705,186.804 162.303,186.808 163.579 C 186.817 166.254,187.065 166.176,187.810 163.261 C 188.394 160.976,188.341 160.215,187.540 159.439 C 186.627 158.554,186.525 158.623,186.672 160.029 M190.000 161.973 C 190.000 163.585,188.930 166.296,187.509 168.283 C 186.735 169.365,186.434 170.005,186.232 170.989 C 185.542 174.357,183.391 175.633,181.496 173.796 L 180.826 173.146 164.463 179.906 C 155.463 183.624,147.929 186.809,147.719 186.983 C 146.081 188.345,143.680 192.674,142.851 195.758 C 142.344 197.644,141.965 207.323,142.235 211.500 L 142.300 212.500 142.670 211.400 C 146.059 201.340,151.345 199.511,153.500 207.653 C 154.788 212.520,155.702 222.687,155.567 230.650 L 155.500 234.600 158.215 234.600 L 160.929 234.600 160.444 233.153 C 159.117 229.197,160.466 224.837,163.646 222.800 L 164.739 222.100 164.995 219.842 C 165.291 217.221,165.350 217.389,164.200 217.601 C 159.073 218.548,159.554 212.396,164.807 209.840 L 166.327 209.100 166.967 204.000 C 167.318 201.195,167.605 198.835,167.603 198.755 C 167.595 198.383,168.578 197.974,168.973 198.186 C 169.620 198.532,169.623 198.878,169.013 203.699 C 168.342 209.013,168.259 208.483,169.717 208.214 C 177.079 206.853,182.398 210.115,184.689 217.396 C 185.810 220.960,186.571 227.958,186.315 232.350 L 186.184 234.600 189.692 234.600 C 192.368 234.600,193.199 234.541,193.195 234.350 C 193.193 234.213,193.104 233.740,192.999 233.300 C 191.450 226.823,192.037 209.302,194.019 202.886 C 195.100 199.387,198.261 198.835,199.284 201.967 C 200.088 204.428,200.396 214.491,199.836 220.000 C 199.488 223.426,198.856 228.378,198.527 230.261 C 198.334 231.363,198.319 231.793,198.477 231.723 C 202.742 229.826,204.616 230.392,204.358 233.501 L 204.267 234.600 206.434 234.600 L 208.600 234.600 208.600 228.912 C 208.600 223.324,208.590 223.183,208.024 220.862 C 206.580 214.942,206.682 209.735,208.267 208.426 C 208.573 208.173,208.600 206.746,208.600 190.984 L 208.600 173.818 207.750 174.123 C 204.318 175.356,197.185 175.296,194.277 174.011 C 190.915 172.524,190.489 168.508,193.595 167.578 C 194.496 167.308,194.810 167.344,200.000 168.312 C 203.150 168.900,205.952 168.344,206.794 166.964 C 207.533 165.751,207.084 163.639,206.134 163.861 C 203.365 164.510,202.447 164.636,200.500 164.636 C 197.132 164.636,193.864 163.756,191.139 162.115 L 190.000 161.429 190.000 161.973 M258.364 162.679 C 257.187 162.996,256.072 163.836,255.647 164.726 L 255.320 165.413 257.389 167.489 C 259.638 169.745,259.813 169.832,261.760 169.655 L 263.020 169.540 260.610 167.102 C 258.175 164.639,257.827 164.053,258.440 163.440 C 258.998 162.882,259.536 163.241,262.339 166.039 C 265.491 169.186,265.250 169.083,266.717 167.896 L 267.300 167.424 264.803 164.912 L 262.306 162.400 260.803 162.413 C 259.976 162.421,258.879 162.540,258.364 162.679 M213.800 165.984 C 213.800 166.415,213.745 166.910,213.679 167.084 C 213.571 167.364,213.906 167.400,216.579 167.400 L 219.600 167.400 219.600 166.925 C 219.600 166.664,219.544 166.169,219.475 165.825 L 219.350 165.200 216.575 165.200 L 213.800 165.200 213.800 165.984 M227.169 166.100 C 227.208 166.595,227.302 167.000,227.378 167.000 C 227.455 167.000,227.914 166.595,228.400 166.100 L 229.283 165.200 228.190 165.200 L 227.097 165.200 227.169 166.100 M180.028 169.428 C 180.013 169.608,179.601 170.299,179.112 170.962 L 178.225 172.168 179.262 171.748 C 179.833 171.517,180.308 171.322,180.318 171.314 C 180.328 171.306,180.273 170.805,180.196 170.200 C 180.119 169.595,180.044 169.248,180.028 169.428 M212.733 170.206 C 212.531 170.644,211.969 171.400,211.483 171.886 L 210.600 172.768 210.600 178.333 L 210.600 183.897 215.807 178.699 C 220.040 174.473,220.991 173.425,220.889 173.100 C 220.820 172.880,220.580 171.958,220.356 171.050 L 219.949 169.400 216.525 169.405 L 213.100 169.410 212.733 170.206 M267.467 172.471 C 266.899 173.052,266.021 173.745,265.517 174.013 C 264.346 174.634,263.886 173.991,269.512 179.602 L 274.424 184.500 275.390 183.460 C 277.682 180.992,277.559 177.650,275.077 174.997 L 274.134 173.988 273.617 174.481 C 271.748 176.264,269.355 175.340,268.822 172.629 C 268.689 171.953,268.562 171.404,268.540 171.408 C 268.518 171.412,268.035 171.891,267.467 172.471 M262.255 192.397 C 261.399 197.927,255.291 200.252,251.156 196.622 L 250.429 195.984 249.006 197.408 L 247.582 198.832 248.314 199.641 C 251.927 203.641,249.284 210.258,243.950 210.567 L 242.600 210.645 242.600 211.492 C 242.600 212.076,242.720 212.447,242.989 212.690 C 243.203 212.883,243.540 213.437,243.739 213.920 C 244.065 214.713,244.200 214.828,245.125 215.098 C 249.818 216.466,251.518 222.211,248.289 225.786 L 247.533 226.623 249.010 228.110 L 250.487 229.597 251.193 228.920 C 252.393 227.770,253.483 227.339,255.444 227.240 L 257.187 227.152 256.023 225.826 C 249.826 218.767,247.451 212.367,250.083 209.817 C 250.802 209.120,252.112 208.705,252.988 208.897 C 253.463 209.002,253.562 208.903,254.128 207.756 C 258.147 199.613,269.824 199.183,274.214 207.016 C 274.591 207.690,275.142 208.466,275.437 208.742 C 277.594 210.755,276.582 216.306,272.316 225.856 C 272.032 226.491,271.800 227.054,271.800 227.106 C 271.800 227.158,272.384 227.200,273.098 227.200 C 274.693 227.200,276.096 227.703,277.336 228.719 C 278.463 229.643,278.782 229.510,279.101 227.986 C 279.226 227.389,279.478 226.556,279.660 226.135 C 279.984 225.389,279.979 225.346,279.469 224.339 C 278.500 222.427,278.632 219.775,279.786 217.954 L 280.338 217.083 279.969 216.395 C 279.097 214.767,279.860 212.575,281.831 211.043 L 283.004 210.133 282.352 209.821 C 278.738 208.094,277.781 202.142,280.681 199.418 L 281.179 198.950 280.548 198.165 C 280.201 197.734,279.530 197.063,279.057 196.675 L 278.196 195.970 277.282 196.774 C 273.363 200.224,267.027 197.572,266.473 192.250 L 266.343 191.000 264.407 191.000 L 262.471 191.000 262.255 192.397 M210.600 204.319 L 210.600 207.737 211.381 207.971 C 213.071 208.477,213.684 209.730,215.128 215.629 L 216.072 219.488 217.817 221.394 C 218.777 222.442,220.371 224.099,221.360 225.075 L 223.157 226.849 223.482 225.733 C 224.027 223.857,224.958 219.804,225.300 217.813 L 225.625 215.926 218.113 208.413 L 210.600 200.901 210.600 204.319 M148.211 211.149 C 147.229 215.609,144.959 220.832,143.267 222.525 L 142.200 223.591 142.200 229.096 L 142.200 234.600 144.868 234.600 L 147.536 234.600 147.666 228.350 C 147.738 224.913,147.975 219.405,148.193 216.112 C 148.613 209.779,148.615 209.314,148.211 211.149 M168.952 215.859 C 167.289 216.439,167.473 216.192,167.213 218.200 C 167.092 219.135,166.943 220.229,166.882 220.632 L 166.771 221.364 167.635 221.160 C 170.867 220.397,175.564 221.185,178.464 222.978 L 179.154 223.404 178.878 221.952 C 177.826 216.412,174.035 214.085,168.952 215.859 M289.100 215.498 C 288.990 215.535,288.653 215.620,288.350 215.686 C 288.048 215.753,287.800 215.930,287.800 216.079 C 287.800 216.560,287.189 216.878,286.360 216.829 C 285.621 216.785,283.594 217.324,282.421 217.875 C 281.099 218.497,280.243 221.780,281.020 223.250 L 281.311 223.800 282.357 223.014 C 285.856 220.385,292.808 220.244,296.919 222.720 L 298.000 223.371 297.997 222.835 C 297.980 219.725,295.902 216.402,293.534 215.699 C 292.659 215.439,289.682 215.304,289.100 215.498 M230.891 225.307 C 230.335 227.008,229.939 228.400,230.011 228.400 C 230.293 228.400,231.768 227.175,232.996 225.921 L 234.292 224.596 233.096 223.405 L 231.900 222.214 230.891 225.307 M217.495 224.100 C 217.577 224.320,217.947 225.390,218.318 226.479 C 219.602 230.243,220.860 233.419,221.005 233.260 C 221.085 233.172,221.481 232.160,221.885 231.011 L 222.620 228.922 219.984 226.311 C 218.534 224.875,217.414 223.880,217.495 224.100 M263.881 224.550 C 263.940 224.743,264.186 225.530,264.427 226.300 L 264.865 227.700 265.130 226.400 C 265.276 225.685,265.443 224.898,265.501 224.650 C 265.600 224.233,265.540 224.200,264.690 224.200 C 263.909 224.200,263.789 224.252,263.881 224.550 M170.469 226.195 C 165.737 227.209,165.517 232.248,170.162 233.213 C 176.162 234.460,181.937 230.013,177.900 227.255 C 176.542 226.327,172.525 225.754,170.469 226.195 M289.079 226.269 C 285.239 227.250,284.452 231.116,287.760 232.740 C 292.724 235.178,300.935 230.927,297.508 227.695 C 296.072 226.341,291.694 225.600,289.079 226.269 " stroke="none" fill="#f9f8f8" fill-rule="evenodd"></path><path id="path1" d="M221.680 136.965 C 218.812 139.044,217.987 146.505,219.100 160.300 C 220.129 173.054,221.205 175.806,224.894 175.114 C 227.392 174.646,227.814 172.390,226.894 164.407 C 226.110 157.608,227.723 153.390,231.496 152.374 C 235.466 151.305,237.473 154.907,236.969 162.200 C 236.284 172.107,236.723 174.200,239.486 174.200 C 245.669 174.200,246.306 154.089,240.314 148.082 C 236.589 144.348,230.462 145.329,226.656 150.271 C 226.075 151.025,225.601 151.520,225.602 151.371 C 225.604 151.222,225.739 149.706,225.904 148.003 C 226.270 144.214,226.317 139.576,226.001 138.403 C 225.461 136.400,223.404 135.715,221.680 136.965 M141.600 139.224 C 134.539 139.586,130.600 141.462,130.600 144.464 C 130.600 147.049,133.963 147.967,139.200 146.812 C 140.355 146.557,141.493 146.306,141.730 146.255 C 142.158 146.161,142.158 146.166,141.872 147.531 C 140.012 156.402,139.189 169.484,140.295 172.594 C 141.275 175.347,144.967 175.956,146.510 173.619 C 148.069 171.256,147.960 158.680,146.291 148.300 C 146.132 147.310,146.001 146.400,146.001 146.278 C 146.000 146.127,146.503 146.176,147.550 146.428 C 152.671 147.662,156.099 147.181,157.091 145.090 C 159.076 140.907,153.075 138.635,141.600 139.224 M282.479 144.909 C 280.455 147.055,280.290 154.810,282.007 167.200 C 282.818 173.058,283.825 174.800,286.400 174.799 C 289.557 174.797,290.199 171.629,288.793 163.000 C 287.687 156.212,287.907 153.441,289.692 151.655 C 290.622 150.725,291.213 150.589,292.171 151.085 C 293.104 151.567,293.265 152.205,293.387 155.909 C 293.511 159.638,293.677 160.209,294.760 160.625 C 300.196 162.710,301.536 147.522,296.158 144.779 C 293.441 143.392,289.989 145.075,288.155 148.679 L 287.534 149.900 287.292 148.485 C 286.626 144.594,284.362 142.912,282.479 144.909 M201.167 144.713 C 195.186 145.796,191.927 149.287,191.946 154.592 C 191.964 159.790,193.792 161.120,202.789 162.485 C 206.202 163.003,207.277 163.755,207.277 165.624 C 207.277 168.393,203.913 169.310,198.127 168.117 C 193.590 167.182,192.034 167.601,191.668 169.857 C 191.148 173.062,194.526 174.829,201.200 174.845 C 209.156 174.863,213.208 172.149,213.541 166.579 C 213.880 160.889,211.347 158.554,203.800 157.602 C 199.691 157.083,198.200 156.157,198.200 154.123 C 198.200 151.002,201.570 149.942,207.560 151.176 C 211.165 151.919,213.000 151.109,213.000 148.773 C 213.000 145.378,207.646 143.541,201.167 144.713 M257.600 144.792 C 252.798 145.819,249.400 148.412,249.400 151.049 C 249.400 153.622,251.388 154.525,254.300 153.276 C 262.417 149.793,267.800 152.275,267.800 159.500 L 267.800 160.020 267.140 159.517 C 261.941 155.552,252.149 157.091,249.597 162.275 C 245.856 169.874,252.313 176.701,261.724 175.097 C 264.428 174.636,268.400 172.300,268.400 171.171 C 268.400 171.077,268.490 171.000,268.600 171.000 C 268.710 171.000,268.800 171.254,268.800 171.564 C 268.800 175.209,272.617 176.625,274.017 173.499 C 275.433 170.335,274.904 159.174,273.068 153.500 C 270.714 146.228,265.255 143.154,257.600 144.792 M180.014 145.150 C 178.347 146.001,178.089 147.764,178.714 154.055 C 179.489 161.869,179.140 164.884,177.238 166.777 C 174.856 169.149,171.351 168.495,170.033 165.433 C 169.412 163.988,169.238 162.446,169.004 156.300 C 168.769 150.153,168.586 148.549,167.984 147.370 C 166.940 145.322,164.014 145.253,162.801 147.246 C 160.652 150.780,161.563 165.423,164.246 170.455 C 167.263 176.117,176.422 175.895,179.540 170.085 L 180.154 168.940 180.290 170.020 C 180.677 173.082,181.593 174.400,183.333 174.400 C 185.870 174.400,186.754 170.932,186.542 161.802 C 186.244 148.931,183.971 143.133,180.014 145.150 M265.068 162.797 C 269.658 164.241,268.670 168.356,263.455 169.517 C 258.506 170.618,254.662 168.629,255.289 165.290 C 255.788 162.629,260.619 161.397,265.068 162.797 M196.100 200.281 C 194.884 200.817,194.218 202.105,193.591 205.130 C 191.344 215.973,191.989 234.373,194.722 237.398 C 197.414 240.378,205.035 236.488,204.289 232.514 C 203.938 230.639,201.740 230.236,199.182 231.578 C 198.181 232.102,197.988 232.151,198.079 231.857 C 199.077 228.638,200.092 216.878,199.939 210.303 C 199.735 201.502,198.809 199.085,196.100 200.281 M239.752 201.472 C 236.232 202.786,236.636 207.761,240.308 208.312 C 242.944 208.707,244.863 207.223,244.866 204.787 C 244.868 202.101,242.383 200.491,239.752 201.472 M148.100 202.932 C 146.032 204.020,144.141 207.447,141.909 214.150 C 141.388 215.718,140.899 217.000,140.823 217.000 C 140.747 217.000,140.383 216.078,140.013 214.950 C 137.138 206.174,134.045 202.489,130.720 203.879 C 128.402 204.847,127.399 209.308,126.595 222.240 C 125.850 234.220,126.430 237.132,129.606 237.362 C 133.666 237.655,134.042 235.387,133.092 216.300 C 132.676 207.941,132.699 207.764,133.691 211.700 C 135.817 220.128,137.795 223.609,140.482 223.649 C 143.341 223.693,145.965 219.407,148.009 211.357 C 148.540 209.262,148.886 208.846,148.720 210.500 C 148.267 215.020,147.930 222.781,147.916 229.000 L 147.900 236.100 148.400 236.992 C 149.905 239.678,153.158 239.365,154.646 236.391 C 156.265 233.155,155.392 214.785,153.258 207.200 C 152.226 203.533,150.178 201.838,148.100 202.932 M170.740 208.230 C 164.418 208.816,159.514 212.930,161.115 216.304 C 161.861 217.875,163.292 217.923,166.895 216.498 C 173.644 213.829,177.595 215.406,178.904 221.291 C 179.414 223.580,179.332 223.727,178.019 222.896 C 174.463 220.647,168.497 220.398,164.634 222.338 C 158.219 225.560,158.699 235.713,165.385 238.215 C 170.113 239.984,176.263 238.883,179.088 235.761 C 180.182 234.552,180.200 234.542,180.200 235.130 C 180.200 239.441,184.549 240.419,185.697 236.365 C 186.416 233.826,186.310 226.033,185.492 221.348 C 183.778 211.535,179.181 207.446,170.740 208.230 M208.751 208.314 C 204.629 210.550,208.815 228.400,215.306 236.262 C 218.497 240.127,223.201 239.509,226.274 234.821 C 232.286 225.649,234.818 211.311,230.803 209.171 C 228.071 207.715,226.524 209.409,225.893 214.546 C 225.186 220.307,222.077 232.403,221.035 233.445 C 220.580 233.900,216.724 222.548,214.986 215.639 C 213.720 210.606,213.143 209.208,212.020 208.456 C 211.216 207.916,209.612 207.846,208.751 208.314 M289.893 208.218 C 283.270 208.830,278.324 212.966,280.103 216.407 C 280.868 217.885,282.327 217.913,285.802 216.517 C 292.652 213.763,296.657 215.398,297.911 221.459 C 298.353 223.596,298.300 223.711,297.200 223.025 C 292.186 219.902,284.323 220.546,280.979 224.355 C 278.200 227.520,278.447 233.270,281.493 236.319 C 285.355 240.184,293.962 239.952,297.923 235.876 L 299.146 234.618 299.255 235.672 C 299.538 238.413,301.246 239.619,303.321 238.542 C 304.843 237.752,305.454 233.752,305.044 227.251 C 304.145 212.974,299.643 207.319,289.893 208.218 M272.700 208.689 C 269.929 209.693,267.622 214.948,265.602 224.864 C 265.292 226.384,264.987 227.679,264.924 227.743 C 264.789 227.878,264.887 228.133,263.505 224.046 C 259.719 212.852,254.335 206.781,250.640 209.540 C 246.911 212.324,249.971 219.216,259.487 229.466 L 262.032 232.208 260.540 233.602 C 253.300 240.363,250.747 248.000,255.727 248.000 C 258.466 248.000,261.837 244.444,266.439 236.700 C 276.462 219.837,279.504 206.224,272.700 208.689 M240.881 212.195 C 236.752 213.864,235.412 235.971,239.286 238.509 C 242.712 240.754,244.805 235.586,244.840 224.800 C 244.870 215.373,243.535 211.122,240.881 212.195 M175.950 226.301 C 180.804 227.508,180.540 231.493,175.503 233.051 C 170.375 234.638,165.618 232.281,166.789 228.733 C 167.578 226.342,171.708 225.246,175.950 226.301 M295.000 226.333 C 300.507 227.826,299.167 232.323,292.890 233.416 C 288.496 234.182,285.161 232.183,285.663 229.087 C 286.092 226.446,290.557 225.129,295.000 226.333 " stroke="none" fill="#050505" fill-rule="evenodd"></path><path id="path2" d="M162.341 52.941 C 160.904 53.608,160.790 53.705,160.879 54.182 C 160.932 54.467,161.030 55.203,161.098 55.817 L 161.221 56.935 160.260 57.714 C 159.732 58.143,158.602 59.211,157.748 60.087 L 156.196 61.681 154.557 61.442 C 152.654 61.165,152.790 61.084,152.021 62.950 L 151.424 64.397 152.881 65.519 L 154.339 66.640 154.174 67.470 C 154.083 67.927,154.016 69.456,154.026 70.869 C 154.035 72.282,153.965 73.504,153.871 73.585 C 153.777 73.667,153.138 74.166,152.450 74.696 C 151.763 75.226,151.200 75.697,151.200 75.743 C 151.200 75.790,151.483 76.506,151.828 77.336 L 152.456 78.844 153.478 78.718 C 154.040 78.648,154.860 78.545,155.300 78.489 C 156.054 78.393,156.135 78.436,156.700 79.217 C 157.030 79.673,158.097 80.799,159.071 81.719 L 160.843 83.391 160.621 84.662 C 160.230 86.907,160.196 86.852,162.565 87.786 L 163.565 88.180 164.571 86.802 L 165.577 85.423 168.839 85.541 C 170.879 85.614,172.151 85.741,172.237 85.879 C 172.312 86.001,172.782 86.657,173.281 87.339 L 174.188 88.577 175.708 87.958 L 177.228 87.339 177.091 85.412 L 176.954 83.484 178.069 82.624 C 179.069 81.852,181.136 79.637,181.557 78.885 C 181.690 78.647,181.911 78.631,182.787 78.797 C 185.141 79.244,185.261 79.195,186.004 77.491 C 186.396 76.592,186.589 75.909,186.481 75.802 C 186.381 75.703,185.771 75.226,185.125 74.743 L 183.951 73.865 183.925 70.367 L 183.900 66.870 185.041 66.002 C 185.669 65.525,186.226 65.021,186.279 64.883 C 186.472 64.379,185.271 61.697,184.870 61.737 C 184.667 61.757,183.870 61.827,183.100 61.891 L 181.700 62.008 180.932 60.923 C 180.510 60.325,179.538 59.229,178.772 58.487 C 178.007 57.745,177.423 57.028,177.475 56.894 C 177.526 56.760,177.631 55.930,177.708 55.051 L 177.847 53.451 176.676 52.915 C 174.967 52.133,174.920 52.144,173.740 53.597 L 172.687 54.893 169.325 54.897 L 165.964 54.900 164.963 53.550 C 164.412 52.808,163.948 52.204,163.931 52.208 C 163.914 52.213,163.199 52.543,162.341 52.941 M171.690 62.214 C 180.672 65.574,178.434 79.200,168.900 79.200 C 160.353 79.200,157.157 67.648,164.416 62.990 C 166.386 61.725,169.498 61.393,171.690 62.214 M126.294 78.945 C 125.896 80.240,125.529 81.448,125.479 81.628 C 125.412 81.866,124.656 82.134,122.757 82.595 C 119.397 83.411,117.265 84.186,115.299 85.307 C 113.368 86.407,113.946 86.530,110.593 84.309 C 107.256 82.099,107.750 82.054,105.128 84.812 C 102.814 87.245,102.839 86.700,104.886 90.100 L 106.572 92.900 106.155 93.600 C 104.139 96.985,102.943 99.730,102.226 102.621 L 101.700 104.741 98.400 105.546 L 95.100 106.350 95.100 109.825 L 95.100 113.300 98.246 114.100 C 101.920 115.034,101.654 114.839,102.202 117.000 C 102.958 119.978,104.375 123.303,105.917 125.713 L 106.626 126.821 105.006 129.660 C 103.064 133.067,103.024 132.662,105.566 135.386 C 108.025 138.021,107.425 137.951,110.630 135.981 C 112.079 135.091,113.383 134.317,113.528 134.261 C 113.673 134.206,114.851 134.793,116.146 135.567 C 118.805 137.156,120.362 137.891,122.750 138.684 L 124.400 139.233 124.400 144.316 L 124.400 149.400 119.000 149.400 L 113.600 149.400 113.600 155.500 L 113.600 161.600 119.000 161.600 L 124.400 161.600 124.400 167.200 L 124.400 172.800 130.400 172.800 L 136.400 172.800 136.400 167.186 L 136.400 161.572 138.166 161.636 L 139.932 161.700 140.284 158.400 C 140.477 156.585,140.808 153.944,141.018 152.532 C 141.228 151.120,141.400 149.837,141.400 149.682 C 141.400 149.454,140.915 149.400,138.881 149.400 L 136.363 149.400 136.431 148.350 L 136.500 147.300 134.777 147.279 C 129.145 147.212,129.131 142.096,134.758 140.327 C 135.910 139.965,136.315 139.745,136.359 139.459 C 136.403 139.172,136.837 138.940,138.096 138.530 C 139.980 137.917,143.516 136.234,145.240 135.130 C 146.704 134.193,146.435 134.139,149.645 136.020 C 152.900 137.927,152.390 138.011,155.079 135.127 L 157.239 132.811 155.896 130.455 C 155.157 129.160,154.383 127.819,154.175 127.474 L 153.798 126.849 154.825 124.891 C 156.196 122.279,157.992 117.176,158.003 115.861 C 158.009 115.142,158.401 114.942,161.426 114.112 L 164.500 113.269 164.500 109.798 L 164.500 106.328 161.408 105.514 L 158.316 104.700 157.577 102.000 C 156.812 99.208,155.781 96.628,154.555 94.433 L 153.847 93.165 155.623 90.172 C 156.600 88.525,157.397 87.116,157.393 87.039 C 157.390 86.963,156.372 85.828,155.132 84.517 L 152.878 82.133 149.928 83.949 L 146.978 85.765 145.339 84.894 C 143.456 83.895,141.187 83.193,137.844 82.578 C 135.030 82.060,135.514 82.543,134.628 79.370 L 133.883 76.700 130.450 76.645 L 127.017 76.591 126.294 78.945 M132.632 94.081 C 144.085 96.272,149.570 110.283,142.729 119.870 C 135.203 130.417,119.232 128.396,114.700 116.323 C 110.143 104.185,120.207 91.703,132.632 94.081 M223.250 136.338 C 223.443 136.388,223.757 136.388,223.950 136.338 C 224.143 136.288,223.985 136.246,223.600 136.246 C 223.215 136.246,223.058 136.288,223.250 136.338 M142.650 139.143 C 142.953 139.189,143.447 139.189,143.750 139.143 C 144.053 139.097,143.805 139.060,143.200 139.060 C 142.595 139.060,142.347 139.097,142.650 139.143 M145.650 139.143 C 145.953 139.189,146.447 139.189,146.750 139.143 C 147.053 139.097,146.805 139.060,146.200 139.060 C 145.595 139.060,145.347 139.097,145.650 139.143 M226.246 140.400 C 226.246 140.785,226.288 140.942,226.338 140.750 C 226.388 140.558,226.388 140.243,226.338 140.050 C 226.288 139.858,226.246 140.015,226.246 140.400 M226.262 142.500 C 226.263 143.160,226.300 143.406,226.345 143.046 C 226.389 142.687,226.389 142.147,226.343 141.846 C 226.297 141.546,226.261 141.840,226.262 142.500 M283.850 144.138 C 284.043 144.188,284.358 144.188,284.550 144.138 C 284.743 144.088,284.585 144.046,284.200 144.046 C 283.815 144.046,283.657 144.088,283.850 144.138 M178.246 149.200 C 178.246 149.585,178.288 149.743,178.338 149.550 C 178.388 149.358,178.388 149.042,178.338 148.850 C 178.288 148.657,178.246 148.815,178.246 149.200 M146.536 149.850 C 146.580 150.097,146.736 151.425,146.883 152.800 L 147.150 155.300 147.175 152.350 C 147.198 149.598,147.175 149.400,146.828 149.400 C 146.551 149.400,146.476 149.516,146.536 149.850 M203.650 150.738 C 203.843 150.788,204.158 150.788,204.350 150.738 C 204.543 150.688,204.385 150.646,204.000 150.646 C 203.615 150.646,203.458 150.688,203.650 150.738 M168.846 152.600 C 168.846 152.985,168.888 153.143,168.938 152.950 C 168.988 152.758,168.988 152.442,168.938 152.250 C 168.888 152.058,168.846 152.215,168.846 152.600 M232.150 152.341 C 232.398 152.389,232.803 152.389,233.050 152.341 C 233.298 152.293,233.095 152.254,232.600 152.254 C 232.105 152.254,231.903 152.293,232.150 152.341 M218.654 154.400 C 218.654 154.895,218.693 155.097,218.741 154.850 C 218.789 154.603,218.789 154.197,218.741 153.950 C 218.693 153.703,218.654 153.905,218.654 154.400 M280.846 156.600 C 280.846 156.985,280.888 157.143,280.938 156.950 C 280.988 156.758,280.988 156.442,280.938 156.250 C 280.888 156.058,280.846 156.215,280.846 156.600 M293.262 157.100 C 293.263 157.760,293.300 158.006,293.345 157.646 C 293.389 157.287,293.389 156.747,293.343 156.446 C 293.297 156.146,293.261 156.440,293.262 157.100 M169.050 158.300 C 169.053 158.740,169.094 158.896,169.141 158.648 C 169.189 158.399,169.187 158.039,169.137 157.848 C 169.087 157.656,169.048 157.860,169.050 158.300 M186.450 158.300 C 186.453 158.740,186.494 158.896,186.541 158.648 C 186.589 158.399,186.587 158.039,186.537 157.848 C 186.487 157.656,186.448 157.860,186.450 158.300 M179.070 160.400 C 179.070 161.335,179.104 161.718,179.146 161.250 C 179.189 160.783,179.189 160.018,179.146 159.550 C 179.104 159.083,179.070 159.465,179.070 160.400 M226.669 161.300 C 226.669 162.180,226.704 162.515,226.747 162.045 C 226.789 161.574,226.788 160.854,226.745 160.445 C 226.702 160.035,226.668 160.420,226.669 161.300 M147.662 165.300 C 147.663 165.960,147.700 166.206,147.745 165.846 C 147.789 165.487,147.789 164.947,147.743 164.646 C 147.697 164.346,147.661 164.640,147.662 165.300 M255.250 165.900 C 255.253 166.340,255.294 166.496,255.341 166.248 C 255.389 165.999,255.387 165.639,255.337 165.448 C 255.287 165.256,255.248 165.460,255.250 165.900 M139.662 166.500 C 139.663 167.160,139.700 167.406,139.745 167.046 C 139.789 166.687,139.789 166.147,139.743 165.846 C 139.697 165.546,139.661 165.840,139.662 166.500 M139.646 169.200 C 139.646 169.585,139.688 169.743,139.738 169.550 C 139.788 169.358,139.788 169.043,139.738 168.850 C 139.688 168.658,139.646 168.815,139.646 169.200 M165.000 171.863 C 165.000 171.897,165.293 172.190,165.650 172.513 L 166.300 173.100 165.713 172.450 C 165.165 171.844,165.000 171.708,165.000 171.863 M250.400 172.063 C 250.400 172.097,250.693 172.390,251.050 172.713 L 251.700 173.300 251.113 172.650 C 250.565 172.044,250.400 171.908,250.400 172.063 M171.253 174.744 C 171.557 174.789,172.007 174.788,172.253 174.741 C 172.499 174.693,172.250 174.656,171.700 174.657 C 171.150 174.659,170.949 174.698,171.253 174.744 M199.250 174.938 C 199.442 174.988,199.758 174.988,199.950 174.938 C 200.143 174.888,199.985 174.846,199.600 174.846 C 199.215 174.846,199.058 174.888,199.250 174.938 M237.250 204.900 C 237.253 205.340,237.294 205.496,237.341 205.248 C 237.389 204.999,237.387 204.639,237.337 204.448 C 237.287 204.256,237.248 204.460,237.250 204.900 M171.450 208.138 C 171.643 208.188,171.958 208.188,172.150 208.138 C 172.343 208.088,172.185 208.046,171.800 208.046 C 171.415 208.046,171.258 208.088,171.450 208.138 M173.450 208.138 C 173.643 208.188,173.958 208.188,174.150 208.138 C 174.343 208.088,174.185 208.046,173.800 208.046 C 173.415 208.046,173.258 208.088,173.450 208.138 M292.250 208.138 C 292.443 208.188,292.757 208.188,292.950 208.138 C 293.143 208.088,292.985 208.046,292.600 208.046 C 292.215 208.046,292.058 208.088,292.250 208.138 M148.543 209.550 C 148.499 209.632,148.530 209.925,148.612 210.200 C 148.750 210.667,148.761 210.658,148.780 210.050 C 148.799 209.423,148.711 209.237,148.543 209.550 M256.700 211.200 C 257.130 211.640,257.526 212.000,257.581 212.000 C 257.636 212.000,257.330 211.640,256.900 211.200 C 256.470 210.760,256.074 210.400,256.019 210.400 C 255.964 210.400,256.270 210.760,256.700 211.200 M200.067 212.200 C 200.067 213.025,200.103 213.363,200.146 212.950 C 200.189 212.538,200.189 211.863,200.146 211.450 C 200.103 211.038,200.067 211.375,200.067 212.200 M132.846 211.600 C 132.846 211.985,132.888 212.143,132.938 211.950 C 132.988 211.757,132.988 211.443,132.938 211.250 C 132.888 211.058,132.846 211.215,132.846 211.600 M276.460 212.000 C 276.460 212.605,276.497 212.853,276.543 212.550 C 276.589 212.248,276.589 211.753,276.543 211.450 C 276.497 211.148,276.460 211.395,276.460 212.000 M162.087 211.850 L 161.500 212.500 162.150 211.913 C 162.508 211.590,162.800 211.297,162.800 211.263 C 162.800 211.108,162.635 211.244,162.087 211.850 M207.046 212.400 C 207.046 212.785,207.088 212.943,207.138 212.750 C 207.188 212.558,207.188 212.243,207.138 212.050 C 207.088 211.857,207.046 212.015,207.046 212.400 M207.046 214.400 C 207.046 214.785,207.088 214.943,207.138 214.750 C 207.188 214.558,207.188 214.243,207.138 214.050 C 207.088 213.857,207.046 214.015,207.046 214.400 M133.046 215.600 C 133.046 215.985,133.088 216.143,133.138 215.950 C 133.188 215.757,133.188 215.443,133.138 215.250 C 133.088 215.058,133.046 215.215,133.046 215.600 M192.246 215.800 C 192.246 216.185,192.288 216.343,192.338 216.150 C 192.388 215.957,192.388 215.643,192.338 215.450 C 192.288 215.257,192.246 215.415,192.246 215.800 M133.246 220.000 C 133.246 220.385,133.288 220.543,133.338 220.350 C 133.388 220.157,133.388 219.843,133.338 219.650 C 133.288 219.457,133.246 219.615,133.246 220.000 M244.857 222.100 C 244.859 222.650,244.898 222.851,244.944 222.547 C 244.989 222.243,244.988 221.793,244.941 221.547 C 244.893 221.301,244.856 221.550,244.857 222.100 M147.854 223.400 C 147.854 223.895,147.893 224.097,147.941 223.850 C 147.989 223.603,147.989 223.197,147.941 222.950 C 147.893 222.703,147.854 222.905,147.854 223.400 M237.067 224.400 C 237.067 225.225,237.103 225.563,237.146 225.150 C 237.189 224.738,237.189 224.063,237.146 223.650 C 237.103 223.238,237.067 223.575,237.067 224.400 M133.454 225.400 C 133.454 225.895,133.493 226.097,133.541 225.850 C 133.589 225.603,133.589 225.197,133.541 224.950 C 133.493 224.703,133.454 224.905,133.454 225.400 M192.250 225.700 C 192.253 226.140,192.294 226.296,192.341 226.048 C 192.389 225.799,192.387 225.439,192.337 225.248 C 192.287 225.056,192.248 225.260,192.250 225.700 M244.862 226.700 C 244.863 227.360,244.900 227.606,244.945 227.246 C 244.989 226.887,244.989 226.347,244.943 226.046 C 244.897 225.746,244.861 226.040,244.862 226.700 M155.457 227.100 C 155.459 227.650,155.498 227.851,155.544 227.547 C 155.589 227.243,155.588 226.793,155.541 226.547 C 155.493 226.301,155.456 226.550,155.457 227.100 M305.046 227.200 C 305.046 227.585,305.088 227.743,305.138 227.550 C 305.188 227.357,305.188 227.043,305.138 226.850 C 305.088 226.657,305.046 226.815,305.046 227.200 M126.257 228.300 C 126.259 228.850,126.298 229.051,126.344 228.747 C 126.389 228.443,126.388 227.993,126.341 227.747 C 126.293 227.501,126.256 227.750,126.257 228.300 M147.680 231.200 C 147.680 232.905,147.711 233.603,147.749 232.750 C 147.786 231.898,147.786 230.503,147.749 229.650 C 147.711 228.798,147.680 229.495,147.680 231.200 M237.064 229.600 C 237.064 230.315,237.100 230.607,237.145 230.250 C 237.189 229.893,237.189 229.308,237.145 228.950 C 237.100 228.593,237.064 228.885,237.064 229.600 M258.400 228.463 C 258.400 228.497,258.693 228.790,259.050 229.113 L 259.700 229.700 259.113 229.050 C 258.565 228.444,258.400 228.308,258.400 228.463 M171.554 233.545 C 171.913 233.589,172.453 233.589,172.754 233.543 C 173.054 233.497,172.760 233.461,172.100 233.462 C 171.440 233.463,171.194 233.500,171.554 233.545 M129.650 237.538 C 129.843 237.588,130.157 237.588,130.350 237.538 C 130.542 237.488,130.385 237.446,130.000 237.446 C 129.615 237.446,129.458 237.488,129.650 237.538 M169.952 239.141 C 170.201 239.189,170.561 239.187,170.752 239.137 C 170.944 239.087,170.740 239.048,170.300 239.050 C 169.860 239.053,169.704 239.094,169.952 239.141 M288.850 239.138 C 289.043 239.188,289.358 239.188,289.550 239.138 C 289.743 239.088,289.585 239.046,289.200 239.046 C 288.815 239.046,288.657 239.088,288.850 239.138 M253.046 245.400 C 253.046 245.785,253.088 245.943,253.138 245.750 C 253.188 245.558,253.188 245.243,253.138 245.050 C 253.088 244.857,253.046 245.015,253.046 245.400 " stroke="none" fill="#a37373" fill-rule="evenodd"></path><path id="path3" d="M153.846 70.600 C 153.846 70.985,153.888 71.142,153.938 70.950 C 153.988 70.758,153.988 70.442,153.938 70.250 C 153.888 70.058,153.846 70.215,153.846 70.600 M157.800 80.663 C 157.800 80.697,158.093 80.990,158.450 81.313 L 159.100 81.900 158.513 81.250 C 157.965 80.644,157.800 80.508,157.800 80.663 M156.300 85.800 C 156.953 86.460,157.532 87.000,157.587 87.000 C 157.642 87.000,157.153 86.460,156.500 85.800 C 155.847 85.140,155.268 84.600,155.213 84.600 C 155.158 84.600,155.647 85.140,156.300 85.800 M140.400 98.063 C 140.400 98.097,140.692 98.390,141.050 98.713 L 141.700 99.300 141.113 98.650 C 140.565 98.044,140.400 97.908,140.400 98.063 M208.933 101.333 C 208.860 101.407,208.800 111.165,208.800 123.018 L 208.800 144.569 209.550 144.811 C 209.963 144.943,210.390 145.123,210.500 145.209 C 210.633 145.314,210.683 137.984,210.648 123.283 L 210.597 101.200 209.832 101.200 C 209.411 101.200,209.007 101.260,208.933 101.333 M240.490 111.995 L 229.700 122.809 226.058 128.854 C 222.238 135.194,222.144 135.398,222.823 135.874 C 223.381 136.264,223.065 136.422,229.700 132.443 L 235.500 128.965 247.200 117.304 C 253.635 110.891,259.885 104.644,261.088 103.422 L 263.277 101.200 262.042 101.200 L 260.808 101.200 247.582 114.350 L 234.357 127.500 230.330 129.935 C 228.115 131.274,226.270 132.336,226.229 132.295 C 226.188 132.254,227.258 130.394,228.607 128.160 L 231.059 124.100 241.846 113.281 C 253.520 101.572,253.653 101.413,251.890 101.240 C 251.325 101.185,250.476 101.986,240.490 111.995 M94.837 110.338 C 94.817 111.899,94.868 113.218,94.950 113.270 C 95.033 113.321,95.076 112.494,95.047 111.432 C 94.949 107.868,94.874 107.479,94.837 110.338 M145.660 110.400 C 145.660 111.005,145.697 111.253,145.743 110.950 C 145.789 110.647,145.789 110.153,145.743 109.850 C 145.697 109.547,145.660 109.795,145.660 110.400 M260.950 144.341 C 261.197 144.389,261.603 144.389,261.850 144.341 C 262.098 144.293,261.895 144.254,261.400 144.254 C 260.905 144.254,260.703 144.293,260.950 144.341 M248.200 149.202 C 246.310 149.360,244.843 149.943,243.542 151.053 L 242.784 151.700 243.113 152.656 L 243.442 153.612 244.301 152.820 C 245.949 151.302,249.033 150.368,249.243 151.324 C 249.289 151.531,249.330 151.320,249.336 150.857 C 249.341 150.393,249.495 149.785,249.677 149.507 C 249.860 149.228,249.985 149.013,249.955 149.029 C 249.925 149.046,249.135 149.123,248.200 149.202 M208.800 155.050 L 208.800 158.500 209.700 158.917 L 210.600 159.334 210.600 155.467 L 210.600 151.600 209.700 151.600 L 208.800 151.600 208.800 155.050 M254.621 153.244 L 253.743 153.640 255.533 155.431 L 257.324 157.221 258.567 157.161 L 259.810 157.100 257.655 154.974 L 255.500 152.849 254.621 153.244 M161.462 155.500 C 161.463 156.160,161.500 156.406,161.545 156.046 C 161.589 155.687,161.589 155.147,161.543 154.846 C 161.497 154.546,161.461 154.840,161.462 155.500 M169.046 157.000 C 169.046 157.385,169.088 157.543,169.138 157.350 C 169.188 157.158,169.188 156.843,169.138 156.650 C 169.088 156.458,169.046 156.615,169.046 157.000 M236.840 157.402 C 236.818 157.567,234.685 159.817,232.100 162.400 L 227.400 167.097 227.436 169.298 C 227.456 170.509,227.505 171.050,227.545 170.500 L 227.618 169.500 232.319 164.789 L 237.019 160.078 236.949 158.589 C 236.911 157.770,236.862 157.236,236.840 157.402 M188.440 158.840 C 187.557 159.723,189.410 161.321,193.334 163.061 C 197.044 164.706,202.500 165.026,205.726 163.788 L 206.300 163.568 205.800 163.308 C 205.025 162.905,202.600 162.404,202.600 162.646 C 202.600 162.783,201.738 162.818,200.050 162.751 C 196.372 162.603,193.925 161.775,190.659 159.572 C 189.146 158.551,188.832 158.448,188.440 158.840 M116.250 161.750 C 117.763 161.783,120.238 161.783,121.750 161.750 C 123.263 161.716,122.025 161.688,119.000 161.688 C 115.975 161.688,114.738 161.716,116.250 161.750 M137.994 161.745 C 139.010 161.789,139.756 161.914,139.859 162.059 C 139.981 162.230,140.007 162.213,139.949 162.000 C 139.885 161.763,139.492 161.697,138.084 161.686 L 136.300 161.673 137.994 161.745 M186.672 163.400 C 186.672 164.445,186.706 164.873,186.747 164.350 C 186.788 163.828,186.788 162.972,186.747 162.450 C 186.706 161.928,186.672 162.355,186.672 163.400 M264.900 164.800 C 267.606 167.513,267.510 167.458,267.785 166.462 C 268.252 164.770,266.801 163.217,264.192 162.615 C 262.366 162.195,262.397 162.291,264.900 164.800 M213.654 165.400 C 213.654 165.895,213.693 166.097,213.741 165.850 C 213.789 165.603,213.789 165.197,213.741 164.950 C 213.693 164.703,213.654 164.905,213.654 165.400 M274.846 168.000 C 274.846 168.385,274.888 168.543,274.938 168.350 C 274.988 168.158,274.988 167.843,274.938 167.650 C 274.888 167.458,274.846 167.615,274.846 168.000 M236.457 168.900 C 236.459 169.450,236.498 169.651,236.544 169.347 C 236.589 169.043,236.588 168.593,236.541 168.347 C 236.493 168.101,236.456 168.350,236.457 168.900 M214.950 179.651 L 208.800 185.802 208.800 196.990 L 208.800 208.179 209.406 207.968 C 209.740 207.852,210.167 207.797,210.356 207.847 C 210.679 207.931,210.697 207.270,210.647 197.223 L 210.593 186.509 216.441 180.659 C 221.514 175.584,222.247 174.775,221.974 174.554 C 221.800 174.414,221.533 174.120,221.379 173.900 C 221.115 173.522,220.759 173.841,214.950 179.651 M271.514 187.526 L 268.729 190.433 268.459 189.919 C 268.087 189.209,267.532 189.104,264.180 189.110 C 260.426 189.117,260.149 189.249,260.326 190.952 C 260.841 195.925,255.222 198.333,251.918 194.556 C 250.767 193.240,250.534 193.304,248.137 195.596 C 245.083 198.515,244.691 199.360,246.026 200.146 C 250.037 202.508,247.863 208.700,243.021 208.700 C 241.066 208.700,240.809 208.913,240.803 210.537 C 240.801 210.997,240.707 211.618,240.594 211.917 C 240.412 212.395,240.424 212.429,240.696 212.204 C 240.889 212.043,241.301 211.988,241.802 212.055 L 242.600 212.162 242.600 211.381 L 242.600 210.600 243.477 210.600 C 248.938 210.600,251.917 203.695,248.206 199.638 C 247.426 198.785,247.373 198.938,249.036 197.264 L 250.472 195.818 251.227 196.500 C 255.263 200.146,261.715 197.651,262.151 192.275 L 262.251 191.049 263.325 190.923 C 263.916 190.853,264.895 190.855,265.500 190.926 L 266.600 191.055 266.600 192.097 C 266.600 193.295,267.117 194.007,267.750 193.681 C 268.252 193.422,275.400 186.119,275.400 185.866 C 275.400 185.607,274.624 184.596,274.435 184.610 C 274.361 184.615,273.046 185.927,271.514 187.526 M200.054 210.000 C 200.054 210.495,200.093 210.697,200.141 210.450 C 200.189 210.203,200.189 209.798,200.141 209.550 C 200.093 209.303,200.054 209.505,200.054 210.000 M200.046 214.200 C 200.046 214.585,200.088 214.743,200.138 214.550 C 200.188 214.357,200.188 214.043,200.138 213.850 C 200.088 213.657,200.046 213.815,200.046 214.200 M232.850 214.300 C 232.853 214.740,232.894 214.896,232.941 214.648 C 232.989 214.399,232.987 214.039,232.937 213.848 C 232.887 213.656,232.848 213.860,232.850 214.300 M244.328 215.769 C 244.481 216.281,244.634 216.788,244.668 216.896 C 244.702 217.004,244.889 216.851,245.082 216.556 C 245.529 215.874,245.351 215.292,244.617 215.036 L 244.051 214.838 244.328 215.769 M235.726 223.270 L 234.351 224.523 234.990 225.061 C 235.670 225.633,235.991 225.595,236.627 224.869 C 236.888 224.570,237.371 221.980,237.160 222.008 C 237.127 222.012,236.482 222.580,235.726 223.270 M147.646 227.600 C 147.646 227.985,147.688 228.143,147.738 227.950 C 147.788 227.757,147.788 227.443,147.738 227.250 C 147.688 227.058,147.646 227.215,147.646 227.600 M186.250 230.700 C 186.253 231.140,186.294 231.296,186.341 231.048 C 186.389 230.799,186.387 230.439,186.337 230.248 C 186.287 230.056,186.248 230.260,186.250 230.700 M260.800 231.063 C 260.800 231.097,261.093 231.390,261.450 231.713 L 262.100 232.300 261.513 231.650 C 260.965 231.044,260.800 230.908,260.800 231.063 " stroke="none" fill="#a1a0a0" fill-rule="evenodd"></path><path id="path4" d="M172.910 54.389 C 172.717 54.603,172.365 54.815,172.129 54.862 C 171.711 54.943,171.710 54.946,172.115 54.973 C 172.343 54.988,172.742 54.775,173.000 54.500 C 173.258 54.225,173.423 54.000,173.366 54.000 C 173.309 54.000,173.104 54.175,172.910 54.389 M178.992 58.650 C 179.482 59.173,179.910 59.600,179.942 59.600 C 180.092 59.600,179.933 59.420,179.050 58.592 L 178.100 57.700 178.992 58.650 M162.887 64.250 L 162.300 64.900 162.950 64.313 C 163.308 63.990,163.600 63.697,163.600 63.663 C 163.600 63.508,163.435 63.644,162.887 64.250 M153.850 69.300 C 153.853 69.740,153.894 69.896,153.941 69.648 C 153.989 69.399,153.987 69.039,153.937 68.848 C 153.887 68.656,153.848 68.860,153.850 69.300 M177.246 69.800 C 177.246 70.185,177.288 70.343,177.338 70.150 C 177.388 69.958,177.388 69.642,177.338 69.450 C 177.288 69.258,177.246 69.415,177.246 69.800 M184.066 70.500 C 184.067 71.270,184.103 71.560,184.146 71.146 C 184.189 70.731,184.189 70.101,184.144 69.746 C 184.100 69.390,184.065 69.730,184.066 70.500 M177.246 71.200 C 177.246 71.585,177.288 71.742,177.338 71.550 C 177.388 71.358,177.388 71.043,177.338 70.850 C 177.288 70.658,177.246 70.815,177.246 71.200 M153.850 71.900 C 153.853 72.340,153.894 72.496,153.941 72.248 C 153.989 71.999,153.987 71.639,153.937 71.448 C 153.887 71.256,153.848 71.460,153.850 71.900 M126.930 76.550 C 126.879 76.633,127.931 76.677,129.269 76.648 C 133.683 76.553,134.150 76.478,130.562 76.439 C 128.616 76.417,126.982 76.468,126.930 76.550 M170.750 85.741 C 170.998 85.789,171.403 85.789,171.650 85.741 C 171.898 85.693,171.695 85.654,171.200 85.654 C 170.705 85.654,170.503 85.693,170.750 85.741 M264.116 88.897 C 263.523 89.108,261.868 90.638,257.309 95.188 L 251.285 101.200 230.942 101.200 L 210.600 101.200 210.600 96.138 C 210.600 90.259,210.725 90.627,208.500 89.937 C 191.051 84.519,173.800 97.438,173.800 115.922 L 173.800 119.192 173.040 119.580 C 169.982 121.140,168.171 124.395,168.185 128.306 C 168.208 135.001,171.427 140.787,175.855 142.095 C 176.691 142.341,176.699 142.353,177.580 144.583 C 178.454 146.793,178.470 146.815,178.713 146.237 C 178.848 145.915,179.143 145.523,179.368 145.365 C 180.269 144.734,178.203 140.400,177.001 140.400 C 175.381 140.400,172.986 138.289,171.736 135.760 C 168.737 129.690,169.839 123.139,174.199 121.119 C 175.898 120.332,175.800 120.640,175.800 116.089 C 175.800 106.996,179.175 100.172,186.111 95.238 C 192.314 90.826,201.800 89.328,208.050 91.775 L 208.600 91.990 208.649 118.345 L 208.697 144.700 208.799 123.000 L 208.900 101.300 209.750 101.239 L 210.600 101.177 210.600 102.089 L 210.600 103.000 229.943 103.000 L 249.286 103.000 248.200 104.100 L 247.114 105.200 228.857 105.200 L 210.600 105.200 210.600 125.167 L 210.600 145.133 211.417 145.790 C 213.589 147.535,213.575 150.492,211.391 151.350 L 210.600 151.661 210.600 155.517 L 210.600 159.373 211.218 159.813 C 212.450 160.690,213.343 162.362,213.692 164.450 L 213.818 165.200 216.628 165.200 L 219.438 165.200 219.321 164.250 C 218.598 158.359,218.439 144.910,219.059 142.035 C 219.723 138.956,220.996 136.896,222.553 136.383 C 223.214 136.164,223.220 136.152,222.815 135.868 C 222.145 135.399,222.245 135.182,226.058 128.854 L 229.700 122.809 240.490 111.995 C 250.476 101.986,251.325 101.185,251.890 101.240 C 252.398 101.290,252.511 101.397,252.566 101.881 C 252.630 102.442,252.706 102.388,254.916 100.184 L 257.199 97.908 258.900 99.600 L 260.601 101.292 258.650 103.296 L 256.700 105.300 258.815 103.239 L 260.929 101.178 262.084 101.239 L 263.238 101.300 249.415 115.100 L 235.591 128.900 229.846 132.363 C 226.686 134.268,223.920 135.905,223.700 136.001 C 223.321 136.165,223.324 136.175,223.760 136.187 C 224.637 136.211,225.421 136.799,225.868 137.764 C 226.494 139.120,226.369 148.243,225.685 151.100 C 225.607 151.426,225.653 151.407,225.930 151.000 C 230.475 144.348,238.968 143.985,242.087 150.310 C 242.409 150.965,242.698 151.533,242.727 151.574 C 242.757 151.615,243.148 151.358,243.595 151.004 C 245.075 149.831,246.336 149.345,248.159 149.242 C 249.766 149.152,249.835 149.127,250.335 148.472 C 251.764 146.598,255.765 144.820,259.470 144.411 C 269.334 143.323,274.646 150.310,274.850 164.640 C 274.868 165.883,274.915 166.546,274.955 166.113 C 274.996 165.681,275.202 165.106,275.414 164.836 C 275.955 164.148,276.028 106.415,275.489 105.645 L 275.177 105.200 267.345 105.200 L 259.514 105.200 260.607 104.093 L 261.700 102.987 272.100 103.043 L 282.500 103.100 283.570 103.692 C 284.746 104.344,285.628 105.447,285.977 106.704 C 286.402 108.236,286.279 144.910,285.850 144.581 C 285.625 144.408,285.652 144.488,285.927 144.806 C 286.712 145.715,286.970 146.385,287.502 148.887 L 287.626 149.474 287.863 148.999 C 288.043 148.638,288.076 143.427,288.000 127.312 L 287.900 106.100 287.409 105.100 C 286.781 103.822,285.378 102.419,284.100 101.791 L 283.100 101.300 273.350 101.243 C 267.988 101.211,263.600 101.120,263.600 101.040 C 263.600 100.960,264.866 99.636,266.414 98.097 C 270.643 93.893,270.816 93.024,267.972 90.267 C 266.355 88.699,265.512 88.400,264.116 88.897 M266.832 91.768 C 268.363 93.299,268.348 93.495,266.550 95.332 L 265.100 96.813 263.400 95.099 L 261.700 93.386 263.126 91.993 C 264.963 90.200,265.246 90.182,266.832 91.768 M128.656 93.947 C 129.182 93.989,129.992 93.988,130.456 93.946 C 130.920 93.904,130.490 93.870,129.500 93.871 C 128.510 93.872,128.130 93.906,128.656 93.947 M262.290 96.757 L 263.680 98.214 262.841 99.054 L 262.001 99.893 260.302 98.202 L 258.603 96.512 259.433 95.667 C 260.402 94.679,260.254 94.623,262.290 96.757 M118.400 98.500 C 117.914 98.995,117.562 99.400,117.617 99.400 C 117.672 99.400,118.114 98.995,118.600 98.500 C 119.086 98.005,119.438 97.600,119.383 97.600 C 119.328 97.600,118.886 98.005,118.400 98.500 M241.878 113.250 C 232.815 122.337,229.573 125.735,230.526 125.146 C 230.638 125.076,231.351 125.645,232.110 126.410 C 233.667 127.979,233.730 128.001,234.600 127.269 L 235.230 126.739 233.568 125.068 L 231.905 123.396 242.302 112.998 C 248.020 107.279,252.654 102.600,252.599 102.600 C 252.544 102.600,247.719 107.392,241.878 113.250 M164.500 109.800 C 164.500 111.759,164.567 113.320,164.650 113.269 C 164.733 113.218,164.800 111.657,164.800 109.800 C 164.800 107.943,164.733 106.382,164.650 106.331 C 164.567 106.280,164.500 107.841,164.500 109.800 M140.694 122.050 L 139.500 123.300 140.750 122.106 C 141.438 121.450,142.000 120.887,142.000 120.856 C 142.000 120.708,141.803 120.889,140.694 122.050 M118.400 122.100 C 118.773 122.485,119.123 122.800,119.178 122.800 C 119.233 122.800,118.973 122.485,118.600 122.100 C 118.227 121.715,117.877 121.400,117.822 121.400 C 117.767 121.400,118.027 121.715,118.400 122.100 M129.050 126.743 C 129.353 126.789,129.847 126.789,130.150 126.743 C 130.453 126.697,130.205 126.660,129.600 126.660 C 128.995 126.660,128.748 126.697,129.050 126.743 M280.314 131.514 C 280.053 131.775,280.000 132.402,280.000 135.200 C 280.000 138.761,280.108 139.200,280.983 139.200 C 281.859 139.200,282.000 138.656,282.000 135.279 C 282.000 131.436,281.503 130.326,280.314 131.514 M156.715 133.381 L 156.129 134.100 156.804 133.456 C 157.176 133.102,157.439 132.779,157.390 132.738 C 157.340 132.696,157.037 132.986,156.715 133.381 M153.389 136.950 L 152.700 137.700 153.450 137.011 C 154.148 136.369,154.292 136.200,154.139 136.200 C 154.106 136.200,153.768 136.537,153.389 136.950 M203.752 144.341 C 204.001 144.389,204.361 144.387,204.552 144.337 C 204.744 144.287,204.540 144.248,204.100 144.250 C 203.660 144.253,203.504 144.294,203.752 144.341 M205.450 144.338 C 205.643 144.388,205.957 144.388,206.150 144.338 C 206.343 144.288,206.185 144.246,205.800 144.246 C 205.415 144.246,205.257 144.288,205.450 144.338 M147.283 153.000 C 147.283 155.035,147.313 155.868,147.349 154.850 C 147.385 153.833,147.385 152.167,147.349 151.150 C 147.313 150.133,147.283 150.965,147.283 153.000 M208.345 151.544 C 208.518 151.666,208.609 152.743,208.653 155.209 L 208.715 158.700 208.707 155.116 C 208.701 152.105,208.652 151.520,208.400 151.451 C 208.183 151.392,208.168 151.418,208.345 151.544 M258.700 151.792 C 258.260 151.887,257.372 152.163,256.727 152.406 L 255.553 152.846 257.703 155.003 L 259.852 157.159 261.176 157.300 C 262.980 157.491,265.275 158.245,266.597 159.079 C 267.900 159.902,267.799 159.951,267.586 158.600 C 266.744 153.252,263.485 150.756,258.700 151.792 M280.662 152.900 C 280.663 153.560,280.700 153.806,280.745 153.446 C 280.789 153.087,280.789 152.547,280.743 152.246 C 280.697 151.946,280.661 152.240,280.662 152.900 M244.167 152.950 C 243.537 153.611,243.472 153.771,243.624 154.300 C 244.454 157.192,244.634 165.947,243.927 169.053 C 243.097 172.706,241.254 174.717,239.107 174.315 C 236.941 173.908,236.224 171.662,236.596 166.452 C 236.702 164.968,236.847 162.932,236.917 161.927 L 237.044 160.100 232.349 164.771 L 227.654 169.443 227.519 171.071 C 227.242 174.421,225.235 176.060,222.700 175.006 C 222.359 174.864,221.439 175.698,216.450 180.668 L 210.600 186.497 210.600 193.700 L 210.600 200.902 218.083 208.383 L 225.566 215.864 225.696 214.882 C 226.267 210.588,226.890 209.207,228.448 208.787 C 232.287 207.753,233.860 212.580,232.232 220.400 L 231.877 222.100 233.083 223.350 L 234.289 224.600 232.894 226.024 C 232.127 226.807,231.095 227.709,230.601 228.030 C 229.954 228.449,229.559 228.913,229.191 229.683 L 228.681 230.754 229.690 230.460 C 231.338 229.980,232.338 229.271,234.783 226.849 C 236.057 225.587,236.801 224.789,236.436 225.076 C 235.725 225.635,235.418 225.594,234.745 224.850 C 234.406 224.475,234.439 224.424,235.761 223.249 L 237.126 222.035 237.378 220.109 C 237.835 216.618,238.779 213.975,240.035 212.669 C 240.548 212.135,240.667 211.814,240.800 210.600 C 241.002 208.759,241.073 208.700,243.075 208.700 C 247.866 208.700,250.007 202.490,246.026 200.146 C 244.691 199.360,245.083 198.515,248.137 195.596 C 250.534 193.304,250.767 193.240,251.918 194.556 C 255.222 198.333,260.841 195.925,260.326 190.952 C 260.149 189.249,260.426 189.117,264.180 189.110 C 267.532 189.104,268.087 189.209,268.459 189.919 L 268.728 190.432 271.569 187.490 C 274.331 184.629,274.421 184.557,274.800 184.900 C 275.715 185.728,275.643 185.850,272.072 189.481 C 270.217 191.366,270.644 190.972,273.020 188.605 C 275.397 186.237,277.576 183.893,277.863 183.395 C 279.794 180.049,279.126 176.391,276.025 173.321 L 274.631 171.942 274.396 172.821 C 274.267 173.304,274.057 173.830,273.930 173.988 C 273.766 174.194,273.765 174.238,273.926 174.142 C 274.260 173.942,275.944 175.840,276.508 177.053 C 277.490 179.162,277.051 181.674,275.387 183.460 L 274.419 184.500 269.428 179.500 L 264.436 174.500 263.368 174.872 C 259.638 176.172,253.932 175.275,251.323 172.978 C 248.303 170.320,247.651 164.499,250.003 161.196 L 250.456 160.560 247.027 157.127 L 243.599 153.695 244.346 152.947 C 244.757 152.536,245.046 152.200,244.987 152.200 C 244.929 152.200,244.560 152.537,244.167 152.950 M230.492 152.873 C 227.643 154.200,226.334 158.278,226.928 163.971 L 227.057 165.200 228.180 165.200 L 229.304 165.200 233.052 161.448 C 237.249 157.246,237.168 157.397,236.384 155.304 C 235.368 152.587,233.108 151.655,230.492 152.873 M161.446 153.800 C 161.446 154.185,161.488 154.343,161.538 154.150 C 161.588 153.958,161.588 153.643,161.538 153.450 C 161.488 153.258,161.446 153.415,161.446 153.800 M253.423 153.650 C 253.472 153.678,254.410 154.555,255.506 155.600 L 257.500 157.500 255.604 155.550 C 254.561 154.478,253.624 153.600,253.521 153.600 C 253.418 153.600,253.374 153.623,253.423 153.650 M186.500 157.171 C 186.636 158.549,186.694 158.686,187.422 159.344 C 188.089 159.946,188.200 160.165,188.197 160.873 C 188.191 162.556,187.065 166.252,186.793 165.484 C 186.718 165.273,186.644 165.950,186.629 166.990 C 186.614 168.029,186.551 169.064,186.489 169.290 C 186.408 169.582,186.548 169.499,186.975 169.000 C 188.485 167.236,189.728 164.455,189.915 162.425 L 190.018 161.300 189.109 160.644 C 187.468 159.459,188.187 157.915,189.869 159.011 L 190.500 159.422 189.902 158.961 C 189.573 158.707,188.640 157.870,187.829 157.100 L 186.355 155.700 186.500 157.171 M161.446 157.200 C 161.446 157.585,161.488 157.743,161.538 157.550 C 161.588 157.358,161.588 157.043,161.538 156.850 C 161.488 156.658,161.446 156.815,161.446 157.200 M191.500 160.116 C 191.986 160.501,194.216 161.651,194.303 161.563 C 194.337 161.528,193.631 161.118,192.733 160.650 C 191.835 160.183,191.280 159.943,191.500 160.116 M186.646 161.000 C 186.646 161.385,186.688 161.543,186.738 161.350 C 186.788 161.158,186.788 160.843,186.738 160.650 C 186.688 160.458,186.646 160.615,186.646 161.000 M190.800 161.890 C 190.800 161.945,191.070 162.129,191.400 162.300 C 191.730 162.471,192.000 162.565,192.000 162.510 C 192.000 162.455,191.730 162.271,191.400 162.100 C 191.070 161.929,190.800 161.835,190.800 161.890 M260.850 162.338 C 261.043 162.388,261.358 162.388,261.550 162.338 C 261.743 162.288,261.585 162.246,261.200 162.246 C 260.815 162.246,260.657 162.288,260.850 162.338 M201.600 162.600 L 200.700 162.740 201.650 162.770 C 202.173 162.786,202.600 162.710,202.600 162.600 C 202.600 162.490,202.578 162.414,202.550 162.430 C 202.523 162.447,202.095 162.523,201.600 162.600 M264.800 164.900 C 266.172 166.275,267.339 167.400,267.394 167.400 C 267.449 167.400,266.372 166.275,265.000 164.900 C 263.628 163.525,262.461 162.400,262.406 162.400 C 262.351 162.400,263.428 163.525,264.800 164.900 M192.600 162.900 C 192.875 163.057,193.190 163.186,193.300 163.186 C 193.410 163.186,193.275 163.057,193.000 162.900 C 192.725 162.743,192.410 162.614,192.300 162.614 C 192.190 162.614,192.325 162.743,192.600 162.900 M198.853 162.744 C 199.157 162.789,199.607 162.788,199.853 162.741 C 200.099 162.693,199.850 162.656,199.300 162.657 C 198.750 162.659,198.549 162.698,198.853 162.744 M258.440 163.440 C 257.821 164.059,258.171 164.640,260.650 167.115 L 263.100 169.560 264.167 169.250 L 265.234 168.939 262.370 166.070 C 259.540 163.235,259.004 162.876,258.440 163.440 M255.401 166.204 C 255.402 167.587,256.491 168.814,258.165 169.317 C 259.647 169.763,259.630 169.721,257.394 167.494 L 255.400 165.508 255.401 166.204 M274.878 168.233 L 274.855 169.425 278.411 169.362 C 282.446 169.292,282.155 169.385,282.049 168.200 L 281.968 167.300 278.552 167.359 C 276.557 167.394,275.086 167.340,275.018 167.230 C 274.953 167.126,274.890 167.578,274.878 168.233 M216.671 167.355 L 213.643 167.410 213.510 168.119 C 213.436 168.509,213.327 168.957,213.267 169.114 C 213.174 169.355,213.694 169.400,216.569 169.400 L 219.981 169.400 219.863 168.350 C 219.797 167.773,219.734 167.300,219.722 167.300 C 219.710 167.300,218.337 167.325,216.671 167.355 M177.819 172.281 C 176.784 173.335,174.777 174.308,172.871 174.679 C 171.989 174.851,167.148 176.744,159.300 179.984 L 147.100 185.022 145.926 186.242 C 143.780 188.471,142.054 191.604,141.047 195.097 C 140.404 197.329,140.020 214.417,140.575 216.167 L 140.849 217.034 141.520 214.967 L 142.191 212.900 142.255 205.300 C 142.318 197.813,142.327 197.671,142.846 195.758 C 143.686 192.663,146.085 188.342,147.719 186.983 C 148.267 186.527,180.744 173.142,180.968 173.280 C 181.071 173.344,180.985 173.063,180.777 172.655 C 180.570 172.248,180.400 171.799,180.400 171.658 C 180.400 171.308,180.193 171.331,179.076 171.810 L 178.120 172.220 178.491 171.810 C 179.178 171.051,178.691 171.392,177.819 172.281 M127.562 172.950 C 129.247 172.983,131.947 172.983,133.562 172.950 C 135.178 172.916,133.800 172.889,130.500 172.889 C 127.200 172.889,125.878 172.916,127.562 172.950 M209.450 173.335 L 208.600 173.830 208.600 190.952 L 208.600 208.074 208.150 208.587 L 207.700 209.100 208.250 208.615 L 208.800 208.130 208.800 196.963 L 208.800 185.796 214.861 179.748 C 218.195 176.422,218.600 175.994,215.761 178.799 L 210.600 183.897 210.600 178.349 C 210.600 175.297,210.532 172.809,210.450 172.820 C 210.368 172.831,209.918 173.063,209.450 173.335 M263.950 190.941 C 264.197 190.989,264.603 190.989,264.850 190.941 C 265.098 190.893,264.895 190.854,264.400 190.854 C 263.905 190.854,263.703 190.893,263.950 190.941 M262.246 191.600 C 262.246 191.985,262.288 192.143,262.338 191.950 C 262.388 191.758,262.388 191.442,262.338 191.250 C 262.288 191.058,262.246 191.215,262.246 191.600 M266.454 191.800 C 266.454 192.295,266.493 192.498,266.541 192.250 C 266.589 192.003,266.589 191.597,266.541 191.350 C 266.493 191.103,266.454 191.305,266.454 191.800 M266.694 193.600 C 268.004 198.045,273.848 199.797,277.282 196.774 L 278.196 195.970 279.057 196.675 C 279.530 197.063,280.201 197.734,280.548 198.165 L 281.179 198.950 280.681 199.418 C 277.795 202.129,278.766 208.226,282.336 209.804 C 282.685 209.958,282.922 210.165,282.861 210.263 C 282.800 210.361,282.986 210.288,283.273 210.100 C 283.560 209.911,284.294 209.555,284.904 209.307 L 286.013 208.856 285.106 208.732 C 280.798 208.141,279.376 203.307,282.597 200.203 C 283.832 199.013,283.835 199.100,282.504 197.531 C 279.194 193.630,278.192 193.151,276.649 194.737 C 274.240 197.214,270.821 196.935,269.029 194.115 C 268.509 193.298,268.490 193.289,267.964 193.585 C 267.471 193.862,267.392 193.855,266.987 193.493 L 266.547 193.100 266.694 193.600 M249.990 196.350 L 249.510 196.900 249.997 196.453 L 250.484 196.005 251.092 196.553 L 251.700 197.100 251.113 196.450 C 250.412 195.675,250.567 195.688,249.990 196.350 M168.034 198.350 C 167.639 198.687,166.163 208.630,166.464 208.931 C 166.541 209.008,168.128 208.640,168.355 208.492 C 168.405 208.460,169.596 199.319,169.599 198.950 C 169.604 198.270,168.586 197.879,168.034 198.350 M255.253 198.344 C 255.557 198.389,256.007 198.388,256.253 198.341 C 256.499 198.293,256.250 198.256,255.700 198.257 C 255.150 198.259,254.949 198.298,255.253 198.344 M243.540 201.715 C 245.587 203.207,245.401 206.805,243.219 207.941 C 239.895 209.671,236.403 207.078,237.395 203.617 C 237.995 201.527,241.706 200.378,243.540 201.715 M261.900 201.542 C 258.639 202.326,255.686 204.657,254.183 207.634 C 253.463 209.060,253.440 208.909,254.450 209.363 C 257.417 210.695,261.555 217.162,263.416 223.376 C 263.743 224.466,265.486 224.674,265.716 223.650 C 268.186 212.673,270.675 208.159,274.107 208.432 C 275.143 208.514,275.143 208.504,274.140 206.834 C 271.758 202.868,266.267 200.494,261.900 201.542 M245.059 215.288 C 245.472 215.701,245.488 216.003,245.124 216.501 C 244.872 216.846,244.934 216.930,245.865 217.489 C 248.614 219.140,248.773 223.050,246.180 225.237 C 245.641 225.691,245.200 226.209,245.200 226.388 C 245.200 227.287,249.797 231.800,250.713 231.800 C 250.991 231.800,251.424 231.468,251.893 230.895 C 254.404 227.832,258.969 228.677,260.193 232.432 L 260.510 233.404 261.199 232.829 L 261.888 232.254 261.215 231.477 C 260.845 231.050,259.777 229.902,258.842 228.927 L 257.142 227.154 255.421 227.241 C 253.485 227.339,252.388 227.774,251.193 228.920 L 250.487 229.597 249.010 228.110 L 247.533 226.623 248.289 225.786 C 251.483 222.251,249.826 216.498,245.209 215.096 C 244.747 214.956,244.738 214.967,245.059 215.288 M286.703 216.253 C 285.439 216.728,285.433 216.737,286.314 216.840 C 286.801 216.897,287.184 216.815,287.452 216.598 C 288.149 216.033,287.762 215.855,286.703 216.253 M166.285 216.857 L 165.270 217.273 165.020 219.554 C 164.728 222.215,164.677 222.086,165.851 221.686 C 166.874 221.337,166.774 221.592,167.209 218.229 C 167.466 216.236,167.539 216.343,166.285 216.857 M280.238 216.930 C 280.266 217.024,280.050 217.505,279.758 218.000 C 278.611 219.942,278.505 222.437,279.487 224.375 L 280.028 225.441 280.636 224.615 C 281.159 223.903,281.215 223.712,281.038 223.244 C 280.435 221.647,280.561 220.474,281.505 218.906 C 282.173 217.797,282.186 217.600,281.594 217.600 C 281.407 217.600,281.014 217.411,280.720 217.180 C 280.427 216.950,280.210 216.837,280.238 216.930 M192.076 220.600 C 192.076 221.865,192.108 222.382,192.148 221.750 C 192.187 221.118,192.187 220.082,192.148 219.450 C 192.108 218.818,192.076 219.335,192.076 220.600 M216.248 220.002 C 216.304 220.168,216.563 221.046,216.823 221.952 L 217.296 223.601 219.922 226.222 L 222.548 228.842 222.874 227.885 L 223.200 226.928 220.262 223.914 C 218.646 222.256,217.059 220.630,216.735 220.300 C 216.411 219.970,216.192 219.836,216.248 220.002 M170.250 220.938 C 170.442 220.988,170.758 220.988,170.950 220.938 C 171.143 220.888,170.985 220.846,170.600 220.846 C 170.215 220.846,170.058 220.888,170.250 220.938 M141.800 223.517 C 141.525 223.669,141.097 223.795,140.850 223.797 L 140.400 223.800 140.400 229.860 C 140.400 234.307,140.464 235.984,140.640 236.160 C 140.809 236.329,141.939 236.400,144.444 236.400 L 148.008 236.400 147.885 235.850 C 147.585 234.503,147.819 234.600,144.881 234.600 L 142.188 234.600 142.244 228.900 C 142.275 225.765,142.300 223.209,142.300 223.219 C 142.300 223.230,142.075 223.364,141.800 223.517 M208.602 228.850 L 208.600 234.600 206.350 234.612 L 204.100 234.625 203.453 235.512 L 202.806 236.400 206.496 236.400 C 209.939 236.400,210.200 236.374,210.393 236.013 C 210.757 235.333,210.658 228.586,210.271 227.674 C 210.090 227.248,209.641 226.045,209.273 225.000 L 208.604 223.100 208.602 228.850 M147.650 226.300 C 147.653 226.740,147.694 226.896,147.741 226.648 C 147.789 226.399,147.787 226.039,147.737 225.848 C 147.687 225.656,147.648 225.860,147.650 226.300 M271.079 228.410 L 270.457 229.721 271.613 229.316 C 273.546 228.639,275.824 229.396,276.976 231.097 C 277.478 231.839,278.343 232.060,278.751 231.550 C 279.138 231.068,278.998 228.998,278.595 229.249 C 278.314 229.425,278.080 229.328,277.359 228.737 C 276.108 227.713,275.143 227.351,273.300 227.217 L 271.700 227.100 271.079 228.410 M186.257 229.100 C 186.259 229.650,186.298 229.851,186.344 229.547 C 186.389 229.243,186.388 228.793,186.341 228.547 C 186.293 228.301,186.256 228.550,186.257 229.100 M186.250 232.100 C 186.253 232.540,186.294 232.696,186.341 232.448 C 186.389 232.199,186.387 231.839,186.337 231.648 C 186.287 231.456,186.248 231.660,186.250 232.100 M259.491 234.450 L 258.700 235.300 259.550 234.509 C 260.340 233.774,260.492 233.600,260.341 233.600 C 260.308 233.600,259.925 233.982,259.491 234.450 M267.700 234.733 C 266.893 236.257,266.903 236.200,267.452 236.200 C 268.265 236.200,268.601 235.636,268.440 234.545 L 268.300 233.599 267.700 234.733 M189.753 234.555 L 186.205 234.609 186.091 235.155 C 185.802 236.526,185.426 236.400,189.819 236.400 C 192.008 236.400,193.796 236.378,193.791 236.350 C 193.786 236.322,193.674 235.895,193.541 235.400 L 193.300 234.500 189.753 234.555 M155.195 235.420 C 154.907 236.489,154.638 236.417,158.679 236.355 L 162.216 236.300 161.591 235.450 L 160.965 234.600 158.190 234.600 L 155.415 234.600 155.195 235.420 M179.350 235.689 L 178.815 236.359 179.576 236.432 L 180.336 236.504 180.186 235.836 C 179.981 234.929,179.960 234.925,179.350 235.689 M280.800 235.863 C 280.800 235.897,281.093 236.190,281.450 236.513 L 282.100 237.100 281.513 236.450 C 280.965 235.844,280.800 235.708,280.800 235.863 " stroke="none" fill="#c6c5c5" fill-rule="evenodd"></path></g></svg>